<svg width="226" height="220" viewBox="0 0 226 220" fill="none" xmlns="http://www.w3.org/2000/svg">
<g clip-path="url(#clip0_1530_22229)">
<path d="M143.339 49.4774H82.7117C81.3301 49.479 80.0056 50.0296 79.0287 51.0081C78.0517 51.9867 77.5022 53.3135 77.5005 54.6974V189.671L76.8056 189.884L61.9327 194.446C61.2278 194.661 60.4665 194.588 59.8158 194.241C59.1651 193.895 58.6782 193.304 58.4621 192.598L14.2219 47.8452C14.0066 47.1391 14.0799 46.3763 14.4259 45.7244C14.7718 45.0725 15.362 44.5849 16.0667 44.3686L38.9859 37.3389L105.429 16.9667L128.348 9.93697C128.697 9.82944 129.064 9.79187 129.427 9.8264C129.79 9.86092 130.143 9.96688 130.466 10.1382C130.788 10.3095 131.074 10.5428 131.306 10.8248C131.538 11.1067 131.713 11.4318 131.819 11.7814L143.128 48.7813L143.339 49.4774Z" fill="#35383F"/>
<path d="M156.568 48.7809L142.939 4.18745C142.712 3.44444 142.342 2.75347 141.848 2.15402C141.355 1.55457 140.748 1.0584 140.063 0.693847C139.378 0.329296 138.628 0.103512 137.856 0.0294042C137.084 -0.0447031 136.305 0.0343187 135.564 0.261946L103.341 10.1418L36.9006 30.5176L4.67764 40.4009C3.18073 40.8613 1.92735 41.8979 1.19261 43.283C0.457872 44.6682 0.301803 46.2888 0.758668 47.7891L47.3404 200.191C47.7115 201.402 48.4604 202.462 49.4771 203.216C50.4938 203.969 51.7248 204.376 52.9895 204.378C53.5748 204.378 54.1569 204.29 54.7161 204.117L76.8049 197.344L77.4997 197.129V196.401L76.8049 196.614L54.5112 203.452C53.1899 203.855 51.7627 203.717 50.5429 203.068C49.323 202.419 48.41 201.312 48.004 199.989L1.42585 47.5838C1.22473 46.9284 1.15463 46.2398 1.21957 45.5573C1.28451 44.8748 1.48321 44.2118 1.8043 43.6064C2.12539 43.0009 2.56257 42.4648 3.09078 42.0289C3.61899 41.5929 4.22787 41.2655 4.88255 41.0656L37.1055 31.1822L103.546 10.81L135.769 0.926643C136.265 0.774843 136.781 0.697443 137.301 0.696958C138.415 0.699464 139.499 1.05929 140.394 1.72372C141.29 2.38816 141.949 3.32229 142.276 4.3893L155.842 48.7809L156.058 49.4769H156.78L156.568 48.7809Z" fill="#3F3D56"/>
<path d="M43.1212 44.4824C42.4516 44.482 41.7998 44.2665 41.2614 43.8678C40.7229 43.469 40.3262 42.9079 40.1295 42.2668L35.6546 27.6256C35.5344 27.2323 35.4927 26.8191 35.5318 26.4097C35.571 26.0002 35.6903 25.6025 35.883 25.2393C36.0756 24.8761 36.3378 24.5544 36.6546 24.2927C36.9714 24.0309 37.3365 23.8343 37.7291 23.7139L98.8534 4.96903C99.6463 4.72665 100.503 4.80931 101.235 5.19887C101.967 5.58843 102.515 6.25305 102.759 7.04686L107.233 21.6882C107.475 22.4825 107.393 23.3405 107.004 24.0738C106.615 24.8072 105.952 25.3561 105.159 25.6001L44.0347 44.345C43.7387 44.436 43.4308 44.4823 43.1212 44.4824Z" fill="#01B763"/>
<path d="M66.5626 15.6443C70.4001 15.6443 73.5109 12.5282 73.5109 8.68423C73.5109 4.84027 70.4001 1.72412 66.5626 1.72412C62.7251 1.72412 59.6143 4.84027 59.6143 8.68423C59.6143 12.5282 62.7251 15.6443 66.5626 15.6443Z" fill="#01B763"/>
<path d="M66.5625 13.0916C68.9925 13.0916 70.9624 11.1183 70.9624 8.68421C70.9624 6.2501 68.9925 4.27686 66.5625 4.27686C64.1325 4.27686 62.1626 6.2501 62.1626 8.68421C62.1626 11.1183 64.1325 13.0916 66.5625 13.0916Z" fill="#1F222A"/>
<path d="M209.866 202.6H92.4394C91.6565 202.599 90.9059 202.287 90.3522 201.732C89.7986 201.178 89.4872 200.426 89.4863 199.642V58.6995C89.4872 57.9152 89.7986 57.1634 90.3522 56.6088C90.9058 56.0543 91.6564 55.7423 92.4394 55.7415H209.866C210.649 55.7424 211.4 56.0543 211.954 56.6088C212.507 57.1634 212.819 57.9153 212.819 58.6995V199.642C212.819 200.426 212.507 201.178 211.953 201.732C211.4 202.287 210.649 202.599 209.866 202.6Z" fill="#35383F"/>
<path d="M155.843 48.7812H82.7118C81.146 48.7835 79.6451 49.4075 78.538 50.5165C77.4308 51.6255 76.8079 53.129 76.8057 54.6973V196.614L77.5005 196.402V54.6973C77.5022 53.3134 78.0518 51.9866 79.0287 51.008C80.0056 50.0295 81.3302 49.4789 82.7118 49.4773H156.059L155.843 48.7812ZM219.594 48.7812H82.7118C81.146 48.7835 79.6451 49.4075 78.538 50.5165C77.4308 51.6255 76.8079 53.129 76.8057 54.6973V214.084C76.8079 215.652 77.4308 217.156 78.538 218.265C79.6451 219.374 81.146 219.998 82.7118 220H219.594C221.16 219.998 222.661 219.374 223.768 218.265C224.875 217.156 225.498 215.652 225.5 214.084V54.6973C225.498 53.129 224.875 51.6255 223.768 50.5165C222.661 49.4075 221.16 48.7835 219.594 48.7812ZM224.805 214.084C224.804 215.468 224.254 216.795 223.277 217.773C222.3 218.752 220.976 219.302 219.594 219.304H82.7118C81.3302 219.302 80.0056 218.752 79.0287 217.773C78.0518 216.795 77.5022 215.468 77.5005 214.084V54.6973C77.5022 53.3134 78.0518 51.9866 79.0287 51.008C80.0056 50.0295 81.3302 49.4789 82.7118 49.4773H219.594C220.976 49.4789 222.3 50.0295 223.277 51.008C224.254 51.9866 224.804 53.3134 224.805 54.6973V214.084Z" fill="#3F3D56"/>
<path d="M183.115 64.0934H119.19C118.361 64.0925 117.566 63.7622 116.98 63.175C116.394 62.5879 116.064 61.7918 116.063 60.9614V45.6491C116.064 44.8188 116.394 44.0226 116.98 43.4355C117.567 42.8483 118.361 42.518 119.19 42.5171H183.115C183.944 42.518 184.739 42.8483 185.325 43.4355C185.911 44.0226 186.241 44.8188 186.242 45.6491V60.9614C186.241 61.7918 185.911 62.5879 185.325 63.175C184.739 63.7622 183.944 64.0925 183.115 64.0934Z" fill="#01B763"/>
<path d="M151.153 43.5611C154.99 43.5611 158.101 40.4449 158.101 36.601C158.101 32.757 154.99 29.6409 151.153 29.6409C147.315 29.6409 144.205 32.757 144.205 36.601C144.205 40.4449 147.315 43.5611 151.153 43.5611Z" fill="#01B763"/>
<path d="M151.153 40.8405C153.49 40.8405 155.385 38.9425 155.385 36.6012C155.385 34.2598 153.49 32.3618 151.153 32.3618C148.815 32.3618 146.92 34.2598 146.92 36.6012C146.92 38.9425 148.815 40.8405 151.153 40.8405Z" fill="#1F222A"/>
</g>
<defs>
<clipPath id="clip0_1530_22229">
<rect width="225" height="220" fill="white" transform="translate(0.5)"/>
</clipPath>
</defs>
</svg>
